# xmcd CD database file
#
# Track frame offsets:
#	150
#	13816
#	22866
#	37054
#	49166
#
# Disc length: 857 seconds
#
# Revision: 0
# Processed by: cddbd v1.5.2PL0 Copyright (c) Steve Scherf et al.
# Submitted via: CDex 1.51
#
DISCID=37035705
DTITLE=Regular John - Marrickville 2204
DYEAR=2007
DGENRE=Rock
TTITLE0=The Zommunist Party
TTITLE1=Big City Nights
TTITLE2=Who We Are
TTITLE3=#20
TTITLE4=There's Only One Thing...
EXTD=YEAR: 2007
EXTT0=
EXTT1=
EXTT2=
EXTT3=
EXTT4=
PLAYORDER=
